<svg width="208" height="36" viewBox="0 0 208 36" fill="none" xmlns="http://www.w3.org/2000/svg">
<g clip-path="url(#clip0_2_23440)">
<path d="M42.4656 18.0047C42.4656 20.7565 42.1714 23.1206 41.5829 25.0875C40.9944 27.0544 40.2066 28.6998 39.229 30.0236C38.2513 31.3475 37.1408 32.4066 35.9164 33.2009C34.6825 33.9953 33.4201 34.6005 32.1102 35.0165C30.8004 35.4326 29.519 35.7069 28.2566 35.8203C26.9942 35.9338 25.8647 36 24.8776 36H0V0H24.8681C25.8647 0 26.9942 0.0567376 28.2471 0.179669C29.5095 0.293144 30.7909 0.567376 32.1008 0.983452C33.4106 1.39953 34.673 2.00473 35.9069 2.79905C37.1313 3.59338 38.2419 4.65248 39.2195 5.97636C40.1971 7.30024 40.9849 8.95508 41.5734 10.922C42.1619 12.8889 42.4561 15.253 42.4561 18.0047H42.4656ZM27.298 26.9787C28.4844 26.9787 29.4431 26.7234 30.1929 26.2222C30.9428 25.721 31.5313 25.0496 31.9679 24.208C32.4045 23.3664 32.7082 22.4113 32.8791 21.3333C33.0499 20.2553 33.1353 19.1489 33.1353 18.0047C33.1353 16.8605 33.0499 15.7541 32.8791 14.6761C32.7082 13.5981 32.4045 12.6525 31.9679 11.8298C31.5313 11.0071 30.9428 10.3452 30.1929 9.83452C29.4431 9.33333 28.4844 9.07801 27.298 9.07801H8.87469V26.9787H27.3075H27.298Z" fill="white" stroke="#933193" stroke-width="0.41" stroke-miterlimit="10"/>
<path d="M60.1581 30.383H50.3722V27.3948H58.5065L61.9425 22.0993H50.3722V18.9598H63.9832L67.628 13.3333H44.8196V36H67.6185L60.1581 30.383Z" fill="white" stroke="#933193" stroke-width="0.41" stroke-miterlimit="10"/>
<path d="M90.7686 13.3333H96.9952L86.4215 36H79.6919L69.1182 13.3333H75.3447L83.0709 31.0166L90.7686 13.3333Z" fill="white" stroke="#933193" stroke-width="0.41" stroke-miterlimit="10"/>
<path d="M112.039 13.3333C112.666 13.3333 113.378 13.3712 114.166 13.4468C114.963 13.5225 115.77 13.6927 116.586 13.9575C117.412 14.2222 118.209 14.6005 118.997 15.1017C119.785 15.6028 120.478 16.2648 121.085 17.0969C121.692 17.9291 122.186 18.9693 122.556 20.208C122.926 21.4468 122.926 27.8865 122.556 29.1253C122.186 30.3641 121.692 31.4043 121.085 32.2364C120.478 33.0686 119.785 33.74 118.997 34.2317C118.209 34.7329 117.412 35.1111 116.586 35.3759C115.76 35.6407 114.953 35.8109 114.166 35.8865C113.368 35.9622 112.666 36 112.039 36H107.483C106.857 36 106.145 35.9622 105.357 35.8865C104.56 35.8109 103.753 35.6407 102.937 35.3759C102.111 35.1111 101.314 34.7329 100.526 34.2317C99.7383 33.7305 99.0454 33.0686 98.4379 32.2364C97.8304 31.4043 97.3369 30.3641 96.9667 29.1253C96.5965 27.8865 96.5965 21.4468 96.9667 20.208C97.3369 18.9693 97.8304 17.9291 98.4379 17.0969C99.0454 16.2648 99.7383 15.5934 100.526 15.1017C101.314 14.6005 102.111 14.2222 102.937 13.9575C103.763 13.6927 104.57 13.5225 105.357 13.4468C106.155 13.3712 106.857 13.3333 107.483 13.3333H112.039ZM113.568 30.3168C114.308 30.3168 114.925 30.156 115.399 29.844C115.884 29.5225 116.254 29.1064 116.529 28.5768C116.804 28.0473 116.994 27.4421 117.098 26.7707C117.203 26.0898 117.203 23.2624 117.098 22.5816C116.994 21.9007 116.804 21.305 116.529 20.7849C116.254 20.2648 115.874 19.8487 115.399 19.5272C114.915 19.2057 114.308 19.0544 113.568 19.0544H105.955C105.215 19.0544 104.598 19.2151 104.123 19.5272C103.639 19.8487 103.269 20.2648 102.994 20.7849C102.719 21.305 102.529 21.9007 102.424 22.5816C102.32 23.2624 102.32 26.0993 102.424 26.7707C102.529 27.4515 102.719 28.0473 102.994 28.5768C103.269 29.1064 103.649 29.5319 104.123 29.844C104.607 30.1655 105.215 30.3168 105.955 30.3168H113.568Z" fill="white" stroke="#933193" stroke-width="0.41" stroke-miterlimit="10"/>
<path d="M146.627 13.3333H152.18V36H143.95L131.023 19.8393V36H125.47V13.3333H133.699L146.627 29.4941V13.3333Z" fill="white" stroke="#933193" stroke-width="0.41" stroke-miterlimit="10"/>
<path d="M180.237 13.3333L169.568 30.3168V36H164.016V30.3168L153.347 13.3333H160.485L166.768 25.1726L173.09 13.3333H180.227H180.237Z" fill="white" stroke="#933193" stroke-width="0.41" stroke-miterlimit="10"/>
<path d="M208 13.3333L198.508 24.6619L208 35.9906H200.416L194.427 28.3404L188.438 35.9906H180.825L190.317 24.6619L180.825 13.3333H188.438L194.427 20.9835L200.416 13.3333H208Z" fill="white" stroke="#933193" stroke-width="0.41" stroke-miterlimit="10"/>
<path d="M86.5544 13.3333H79.6634L83.1184 21.2388L86.5638 13.3333H86.5544Z" fill="white" stroke="#933193" stroke-width="0.41" stroke-miterlimit="10"/>
</g>
<defs>
<clipPath id="clip0_2_23440">
<rect width="208" height="36" fill="white"/>
</clipPath>
</defs>
</svg>
